<?xml version="1.0" encoding="utf-8"?>
<!-- Generator: Adobe Illustrator 16.0.3, SVG Export Plug-In . SVG Version: 6.00 Build 0)  -->
<!DOCTYPE svg PUBLIC "-//W3C//DTD SVG 1.1//EN" "http://www.w3.org/Graphics/SVG/1.1/DTD/svg11.dtd">
<svg version="1.1" xmlns="http://www.w3.org/2000/svg" xmlns:xlink="http://www.w3.org/1999/xlink" x="0px" y="0px" width="98px" height="60px" viewBox="0 0 872 532" style="enable-background:new 0 0 872 532;" xml:space="preserve">
<g id="Layer_1">
	<g>
		<g>
			<path style="fill:#003DA6;" d="M171.45,473c-0.45,0.02-1.1,0.11-1.97,0.29c-0.86,0.18-1.57,0.44-2.11,0.79
				c-0.54,0.37-0.92,1.13-1.13,2.28c-0.21,1.15-0.31,2.56-0.31,4.22v14.8c0,1.89-0.39,3.53-1.18,4.92
				c-0.78,1.39-1.81,2.54-3.09,3.43c-1.26,0.86-2.6,1.48-3.99,1.86c-1.4,0.38-2.74,0.56-4.02,0.56c-2.05,0-3.87-0.27-5.47-0.8
				c-1.6-0.54-2.94-1.26-4.03-2.17c-1.07-0.91-1.88-1.96-2.42-3.13c-0.54-1.18-0.81-2.4-0.81-3.68v-20.13c0-0.56-0.09-1.03-0.28-1.4
				s-0.56-0.72-1.12-1.04c-0.4-0.22-0.91-0.4-1.54-0.54c-0.63-0.14-1.14-0.22-1.54-0.25v-1.7h14.18v1.7
				c-0.45,0.02-1.01,0.09-1.69,0.22c-0.68,0.13-1.18,0.25-1.5,0.36c-0.54,0.19-0.91,0.51-1.09,0.96c-0.18,0.45-0.28,0.93-0.28,1.46
				v18.8c0,0.91,0.1,1.87,0.3,2.87c0.2,1,0.6,1.93,1.19,2.79c0.62,0.88,1.47,1.6,2.54,2.16c1.07,0.56,2.54,0.84,4.42,0.84
				c1.76,0,3.23-0.28,4.43-0.84c1.19-0.56,2.13-1.29,2.82-2.21c0.66-0.86,1.12-1.77,1.39-2.71c0.27-0.94,0.41-1.89,0.41-2.85v-13.95
				c0-1.77-0.13-3.22-0.38-4.35c-0.26-1.13-0.63-1.87-1.13-2.22c-0.56-0.4-1.32-0.71-2.29-0.94c-0.97-0.22-1.71-0.35-2.22-0.38v-1.7
				h13.92V473L171.45,473z"/>
			<path style="fill:#003DA6;" d="M199.69,505.35h-11.56v-1.58c0.37-0.03,0.77-0.06,1.21-0.1c0.44-0.03,0.8-0.09,1.09-0.19
				c0.45-0.14,0.78-0.4,1-0.76c0.21-0.36,0.32-0.83,0.32-1.4v-12.17c0-1.68-0.4-2.97-1.19-3.89c-0.79-0.91-1.76-1.37-2.9-1.37
				c-0.85,0-1.63,0.13-2.33,0.4c-0.71,0.26-1.33,0.59-1.88,0.97c-0.53,0.37-0.95,0.77-1.26,1.19c-0.31,0.42-0.54,0.76-0.69,1.02
				v13.61c0,0.54,0.11,0.99,0.33,1.35c0.23,0.35,0.56,0.62,1.01,0.81c0.34,0.16,0.7,0.28,1.09,0.36c0.39,0.08,0.79,0.14,1.21,0.17
				v1.58h-11.59v-1.58c0.37-0.03,0.75-0.06,1.14-0.1c0.39-0.03,0.73-0.09,1.02-0.19c0.45-0.14,0.78-0.4,1-0.75
				c0.22-0.36,0.32-0.83,0.32-1.4v-14.6c0-0.54-0.12-1.04-0.35-1.5c-0.23-0.46-0.56-0.83-0.97-1.12c-0.3-0.19-0.66-0.33-1.08-0.42
				c-0.42-0.09-0.86-0.15-1.34-0.18v-1.58l7.87-0.53l0.34,0.34v3.34h0.12c0.38-0.38,0.86-0.84,1.44-1.38s1.12-0.97,1.63-1.31
				c0.59-0.38,1.3-0.71,2.11-0.96c0.82-0.26,1.73-0.38,2.76-0.38c2.27,0,3.96,0.71,5.05,2.12c1.1,1.42,1.64,3.3,1.64,5.65v12.31
				c0,0.56,0.1,1.01,0.29,1.36c0.19,0.34,0.52,0.61,0.98,0.8c0.39,0.16,0.72,0.27,1,0.34c0.28,0.06,0.67,0.11,1.16,0.14V505.35
				L199.69,505.35z"/>
			<path style="fill:#003DA6;" d="M211.06,472.07c0,0.91-0.3,1.71-0.9,2.39c-0.6,0.68-1.34,1.02-2.22,1.02
				c-0.81,0-1.52-0.32-2.12-0.97c-0.6-0.65-0.9-1.39-0.9-2.22c0-0.88,0.3-1.65,0.9-2.3c0.6-0.66,1.31-0.98,2.12-0.98
				c0.91,0,1.66,0.31,2.24,0.92C210.77,470.53,211.06,471.25,211.06,472.07L211.06,472.07z M214.06,505.35h-11.42v-1.58
				c0.37-0.03,0.75-0.06,1.14-0.1c0.39-0.03,0.73-0.09,1.02-0.19c0.45-0.14,0.78-0.4,1-0.75c0.21-0.36,0.32-0.83,0.32-1.4v-14.6
				c0-0.51-0.12-0.98-0.35-1.4c-0.23-0.42-0.56-0.78-0.97-1.07c-0.3-0.19-0.74-0.35-1.32-0.49c-0.58-0.13-1.1-0.22-1.58-0.25v-1.58
				l8.35-0.53l0.34,0.34v19.29c0,0.56,0.11,1.02,0.32,1.39c0.21,0.37,0.55,0.64,1.01,0.81c0.35,0.14,0.69,0.26,1.02,0.35
				c0.33,0.09,0.71,0.15,1.12,0.18V505.35L214.06,505.35z"/>
			<path style="fill:#003DA6;" d="M240.36,483.15c-0.72,0.13-1.4,0.39-2.05,0.78c-0.65,0.39-1.2,1.08-1.67,2.07
				c-0.94,2.14-1.92,4.38-2.93,6.71c-1.01,2.33-2.06,4.77-3.14,7.33c-0.32,0.74-0.66,1.61-1.02,2.62c-0.36,1.01-0.69,1.98-1,2.9
				h-1.87c-1.52-3.76-2.92-7.19-4.2-10.28c-1.28-3.09-2.61-6.27-3.98-9.51c-0.32-0.73-0.84-1.31-1.55-1.71
				c-0.71-0.41-1.43-0.67-2.15-0.78v-1.58h10.95v1.68c-0.48,0.02-1.08,0.12-1.8,0.3c-0.72,0.18-1.08,0.43-1.08,0.75
				c0,0.05,0.04,0.17,0.12,0.37c0.08,0.2,0.16,0.43,0.24,0.68c0.65,1.63,1.58,3.91,2.77,6.83c1.2,2.92,2.17,5.28,2.92,7.07
				c0.58-1.37,1.3-3.08,2.17-5.13s1.81-4.33,2.82-6.85c0.16-0.43,0.31-0.83,0.46-1.21c0.15-0.38,0.22-0.75,0.22-1.14
				c0-0.27-0.13-0.52-0.4-0.73c-0.26-0.21-0.58-0.4-0.95-0.56c-0.37-0.16-0.73-0.28-1.08-0.36c-0.35-0.08-0.64-0.14-0.86-0.17v-1.54
				h9.05V483.15L240.36,483.15z"/>
			<path style="fill:#003DA6;" d="M257.11,490.76c0-0.89-0.08-1.85-0.23-2.87c-0.15-1.02-0.4-1.87-0.73-2.56
				c-0.37-0.73-0.87-1.33-1.51-1.79c-0.64-0.46-1.46-0.7-2.47-0.7c-1.68,0-3.07,0.7-4.19,2.09c-1.11,1.4-1.72,3.34-1.81,5.83H257.11
				L257.11,490.76z M262.41,499.78c-0.99,1.89-2.32,3.39-3.98,4.51c-1.66,1.12-3.57,1.68-5.73,1.68c-1.9,0-3.57-0.33-5-1.01
				c-1.43-0.67-2.61-1.58-3.54-2.73c-0.93-1.15-1.62-2.5-2.08-4.03c-0.46-1.54-0.68-3.16-0.68-4.87c0-1.54,0.24-3.04,0.73-4.52
				c0.49-1.48,1.2-2.81,2.15-4c0.91-1.13,2.04-2.05,3.4-2.75s2.87-1.04,4.55-1.04c1.73,0,3.21,0.27,4.44,0.82
				c1.23,0.54,2.23,1.29,3,2.23c0.74,0.9,1.28,1.95,1.64,3.17c0.36,1.21,0.54,2.54,0.54,3.96v1.58h-15.67
				c0,1.55,0.15,2.97,0.44,4.23c0.3,1.27,0.76,2.38,1.4,3.34c0.62,0.93,1.44,1.66,2.45,2.2c1.01,0.54,2.21,0.81,3.6,0.81
				c1.42,0,2.65-0.33,3.68-1c1.03-0.67,2.03-1.87,2.99-3.61L262.41,499.78L262.41,499.78z"/>
			<path style="fill:#003DA6;" d="M283.26,484.73c0,0.82-0.2,1.54-0.6,2.17s-1.02,0.95-1.85,0.95c-0.9,0-1.58-0.23-2.05-0.7
				c-0.47-0.46-0.71-0.98-0.71-1.54c0-0.35,0.03-0.67,0.08-0.96c0.06-0.29,0.11-0.58,0.16-0.86c-0.75,0-1.63,0.3-2.64,0.91
				c-1.01,0.61-1.86,1.47-2.57,2.59v13.77c0,0.56,0.11,1.02,0.32,1.37c0.22,0.35,0.56,0.62,1.02,0.79c0.4,0.16,0.92,0.28,1.55,0.36
				c0.63,0.08,1.18,0.14,1.64,0.17v1.58h-12.47v-1.58c0.37-0.03,0.75-0.06,1.14-0.1c0.39-0.03,0.73-0.09,1.02-0.19
				c0.45-0.14,0.78-0.4,1-0.75c0.21-0.36,0.32-0.83,0.32-1.4v-14.6c0-0.5-0.12-0.98-0.35-1.46c-0.23-0.48-0.55-0.86-0.97-1.15
				c-0.3-0.19-0.66-0.33-1.08-0.42c-0.42-0.09-0.86-0.15-1.34-0.18v-1.58l7.87-0.53l0.34,0.34v3.34h0.12
				c0.99-1.29,2.1-2.28,3.31-2.95c1.22-0.67,2.33-1.01,3.34-1.01c1.01,0,1.83,0.33,2.46,0.98
				C282.94,482.75,283.26,483.63,283.26,484.73L283.26,484.73z"/>
			<path style="fill:#003DA6;" d="M300.89,493.76c0.66,0.58,1.16,1.24,1.51,1.99c0.35,0.75,0.53,1.67,0.53,2.76
				c0,2.19-0.82,3.98-2.46,5.37s-3.76,2.09-6.37,2.09c-1.38,0-2.64-0.25-3.8-0.74c-1.16-0.49-1.99-0.95-2.48-1.37l-0.48,1.56h-1.8
				l-0.24-8.23h1.66c0.13,0.63,0.4,1.36,0.81,2.19c0.42,0.83,0.92,1.59,1.51,2.26c0.62,0.71,1.37,1.3,2.24,1.78
				c0.87,0.48,1.85,0.72,2.94,0.72c1.54,0,2.72-0.35,3.55-1.05c0.83-0.7,1.25-1.7,1.25-3c0-0.67-0.13-1.25-0.4-1.74
				c-0.26-0.49-0.65-0.92-1.16-1.28c-0.53-0.37-1.17-0.7-1.94-1c-0.77-0.29-1.62-0.59-2.57-0.88c-0.75-0.22-1.59-0.53-2.51-0.92
				c-0.92-0.39-1.71-0.85-2.36-1.38c-0.71-0.56-1.28-1.25-1.73-2.06c-0.45-0.82-0.67-1.78-0.67-2.88c0-1.94,0.72-3.57,2.16-4.92
				c1.44-1.34,3.37-2.02,5.78-2.02c0.93,0,1.87,0.12,2.84,0.36c0.97,0.24,1.75,0.53,2.36,0.86l0.55-1.25h1.73l0.36,7.61h-1.65
				c-0.34-1.7-1.06-3.09-2.17-4.16c-1.11-1.07-2.47-1.6-4.07-1.6c-1.31,0-2.34,0.33-3.1,0.99c-0.75,0.66-1.13,1.46-1.13,2.39
				c0,0.72,0.12,1.32,0.37,1.8c0.25,0.48,0.62,0.89,1.12,1.22c0.48,0.32,1.08,0.62,1.81,0.9c0.73,0.28,1.63,0.6,2.7,0.95
				c1.05,0.33,2.05,0.73,2.99,1.18C299.51,492.72,300.29,493.21,300.89,493.76L300.89,493.76z"/>
			<path style="fill:#003DA6;" d="M314.98,472.07c0,0.91-0.3,1.71-0.9,2.39c-0.6,0.68-1.34,1.02-2.22,1.02
				c-0.81,0-1.52-0.32-2.12-0.97c-0.6-0.65-0.9-1.39-0.9-2.22c0-0.88,0.3-1.65,0.9-2.3c0.6-0.66,1.31-0.98,2.12-0.98
				c0.91,0,1.66,0.31,2.24,0.92C314.68,470.53,314.98,471.25,314.98,472.07L314.98,472.07z M317.98,505.35h-11.42v-1.58
				c0.37-0.03,0.75-0.06,1.14-0.1c0.39-0.03,0.73-0.09,1.02-0.19c0.45-0.14,0.78-0.4,1-0.75c0.21-0.36,0.32-0.83,0.32-1.4v-14.6
				c0-0.51-0.12-0.98-0.35-1.4c-0.23-0.42-0.56-0.78-0.97-1.07c-0.3-0.19-0.74-0.35-1.32-0.49c-0.58-0.13-1.1-0.22-1.58-0.25v-1.58
				l8.35-0.53l0.34,0.34v19.29c0,0.56,0.11,1.02,0.32,1.39c0.21,0.37,0.55,0.64,1.01,0.81c0.35,0.14,0.69,0.26,1.03,0.35
				c0.33,0.09,0.71,0.15,1.12,0.18V505.35L317.98,505.35z"/>
			<path style="fill:#003DA6;" d="M335.51,504.31c-1.04,0.43-2.02,0.8-2.95,1.09c-0.93,0.3-2.06,0.44-3.41,0.44
				c-1.98,0-3.38-0.5-4.19-1.5c-0.81-1-1.21-2.41-1.21-4.23v-16.03h-4.27v-2.3h4.37v-7.37h4.37v7.37h6.79v2.3h-6.74v13.22
				c0,0.99,0.04,1.82,0.11,2.48c0.07,0.67,0.24,1.24,0.52,1.74c0.26,0.46,0.64,0.82,1.15,1.06c0.51,0.24,1.2,0.36,2.06,0.36
				c0.4,0,0.99-0.04,1.76-0.11c0.78-0.07,1.32-0.17,1.64-0.28V504.31L335.51,504.31z"/>
			<path style="fill:#003DA6;" d="M336.06,513.07c0-0.8,0.22-1.45,0.66-1.96c0.44-0.5,0.99-0.76,1.64-0.76
				c0.51,0,0.95,0.1,1.32,0.29c0.37,0.19,0.7,0.44,0.99,0.74c0.24,0.24,0.49,0.56,0.77,0.98c0.27,0.41,0.49,0.75,0.65,1.02
				c0.8-0.43,1.76-1.56,2.87-3.38c1.11-1.82,1.92-3.42,2.41-4.79c-1.52-3.79-2.89-7.18-4.13-10.17c-1.23-2.99-2.52-6.08-3.86-9.28
				c-0.3-0.73-0.82-1.31-1.54-1.71c-0.72-0.41-1.44-0.67-2.16-0.78v-1.58h10.8v1.68c-0.48,0.02-1.06,0.12-1.73,0.3
				s-1.01,0.4-1.01,0.63c0,0.1,0.04,0.26,0.11,0.48c0.07,0.22,0.16,0.45,0.25,0.69c0.61,1.58,1.53,3.86,2.78,6.84
				c1.25,2.98,2.21,5.37,2.89,7.16c0.72-1.71,1.47-3.48,2.25-5.31c0.78-1.83,1.64-3.99,2.61-6.49c0.11-0.3,0.27-0.72,0.48-1.26
				c0.21-0.54,0.31-1,0.31-1.38c0-0.42-0.36-0.8-1.09-1.16c-0.73-0.36-1.42-0.58-2.08-0.66v-1.54h8.79v1.49
				c-0.48,0.08-1.11,0.36-1.9,0.83c-0.78,0.47-1.37,1.14-1.75,2c-1.9,4.42-3.59,8.44-5.07,12.07c-1.48,3.63-2.6,6.3-3.37,8.01
				c-1.01,2.24-1.91,3.99-2.7,5.24c-0.79,1.26-1.56,2.24-2.32,2.96c-0.74,0.67-1.4,1.12-2,1.36c-0.6,0.23-1.22,0.35-1.86,0.35
				c-1.25,0-2.23-0.3-2.94-0.89C336.42,514.52,336.06,513.84,336.06,513.07L336.06,513.07z"/>
			<path style="fill:#003DA6;" d="M391.51,471.08c0,0.72-0.19,1.33-0.58,1.83c-0.38,0.5-0.97,0.74-1.75,0.74
				c-0.5,0-0.93-0.1-1.31-0.31c-0.38-0.21-0.72-0.49-1.04-0.84c-0.32-0.35-0.62-0.75-0.89-1.2c-0.27-0.45-0.5-0.81-0.69-1.08
				c-1.07,0.05-1.9,0.79-2.48,2.24c-0.59,1.45-0.88,3.75-0.88,6.91v2.42h6.09v2.3h-6.09v16.99c0,0.56,0.11,1.02,0.32,1.37
				c0.22,0.35,0.56,0.62,1.02,0.79c0.38,0.14,0.9,0.26,1.53,0.35c0.64,0.09,1.19,0.15,1.66,0.18v1.58h-12.48v-1.58
				c0.37-0.03,0.75-0.06,1.14-0.1c0.39-0.03,0.73-0.09,1.02-0.19c0.45-0.14,0.78-0.4,1-0.76c0.22-0.36,0.32-0.83,0.32-1.4v-17.23
				h-4.68v-2.3h4.68v-1.51c0-3.59,0.93-6.5,2.79-8.73c1.86-2.23,4.19-3.34,6.99-3.34c1.42,0,2.49,0.28,3.21,0.84
				C391.15,469.6,391.51,470.28,391.51,471.08L391.51,471.08z"/>
			<path style="fill:#003DA6;" d="M407.99,493.32c0-1.2-0.12-2.47-0.36-3.8c-0.24-1.34-0.6-2.47-1.08-3.4
				c-0.51-0.99-1.19-1.79-2.02-2.39c-0.83-0.6-1.85-0.9-3.05-0.9c-1.23,0-2.29,0.3-3.16,0.91c-0.87,0.61-1.58,1.44-2.13,2.5
				c-0.51,0.98-0.87,2.09-1.08,3.33c-0.21,1.25-0.31,2.46-0.31,3.62c0,1.53,0.13,2.96,0.37,4.26c0.25,1.3,0.65,2.47,1.19,3.49
				c0.54,1.02,1.23,1.83,2.05,2.41c0.83,0.58,1.85,0.88,3.06,0.88c2,0,3.59-0.97,4.76-2.9C407.41,499.4,407.99,496.73,407.99,493.32
				L407.99,493.32z M412.96,493.28c0,1.66-0.26,3.3-0.79,4.91c-0.53,1.61-1.28,2.97-2.26,4.09c-1.1,1.28-2.39,2.23-3.84,2.85
				c-1.46,0.62-3.09,0.94-4.9,0.94c-1.51,0-2.94-0.28-4.3-0.85c-1.36-0.57-2.57-1.4-3.63-2.48c-1.04-1.07-1.87-2.38-2.49-3.92
				c-0.62-1.54-0.92-3.27-0.92-5.19c0-3.7,1.08-6.72,3.23-9.07c2.15-2.35,4.98-3.53,8.47-3.53c3.31,0,6.05,1.12,8.2,3.35
				C411.88,486.59,412.96,489.57,412.96,493.28L412.96,493.28z"/>
			<path style="fill:#003DA6;" d="M434.48,484.73c0,0.82-0.2,1.54-0.6,2.17c-0.4,0.63-1.01,0.95-1.85,0.95
				c-0.9,0-1.58-0.23-2.05-0.7c-0.47-0.46-0.71-0.98-0.71-1.54c0-0.35,0.03-0.67,0.08-0.96c0.06-0.29,0.11-0.58,0.16-0.86
				c-0.75,0-1.63,0.3-2.64,0.91c-1.01,0.61-1.86,1.47-2.57,2.59v13.77c0,0.56,0.11,1.02,0.32,1.37c0.22,0.35,0.56,0.62,1.02,0.79
				c0.4,0.16,0.91,0.28,1.55,0.36c0.63,0.08,1.18,0.14,1.64,0.17v1.58h-12.48v-1.58c0.37-0.03,0.75-0.06,1.14-0.1
				c0.39-0.03,0.73-0.09,1.02-0.19c0.45-0.14,0.78-0.4,1-0.75c0.21-0.36,0.32-0.83,0.32-1.4v-14.6c0-0.5-0.12-0.98-0.35-1.46
				c-0.23-0.48-0.56-0.86-0.97-1.15c-0.3-0.19-0.66-0.33-1.08-0.42c-0.42-0.09-0.87-0.15-1.34-0.18v-1.58l7.87-0.53l0.34,0.34v3.34
				h0.12c0.99-1.29,2.1-2.28,3.31-2.95c1.21-0.67,2.33-1.01,3.33-1.01s1.83,0.33,2.46,0.98
				C434.16,482.75,434.48,483.63,434.48,484.73L434.48,484.73z"/>
			<path style="fill:#003DA6;" d="M462.96,504.31c-1.04,0.43-2.02,0.8-2.95,1.09c-0.93,0.3-2.06,0.44-3.41,0.44
				c-1.98,0-3.38-0.5-4.19-1.5c-0.81-1-1.21-2.41-1.21-4.23v-16.03h-4.27v-2.3h4.37v-7.37h4.37v7.37h6.79v2.3h-6.74v13.22
				c0,0.99,0.04,1.82,0.11,2.48c0.07,0.67,0.24,1.24,0.52,1.74c0.26,0.46,0.64,0.82,1.15,1.06c0.51,0.24,1.2,0.36,2.06,0.36
				c0.4,0,0.99-0.04,1.76-0.11c0.78-0.07,1.32-0.17,1.64-0.28V504.31L462.96,504.31z"/>
			<path style="fill:#003DA6;" d="M491.05,505.35h-11.64v-1.58c0.37-0.03,0.78-0.06,1.22-0.1c0.45-0.03,0.82-0.09,1.1-0.19
				c0.45-0.14,0.78-0.4,1-0.76c0.22-0.36,0.32-0.83,0.32-1.4v-12.17c0-1.68-0.4-2.97-1.19-3.89c-0.79-0.91-1.76-1.37-2.9-1.37
				c-0.83,0-1.61,0.13-2.32,0.4c-0.71,0.26-1.35,0.59-1.91,0.97c-0.54,0.4-0.96,0.8-1.25,1.2c-0.29,0.4-0.51,0.74-0.67,1.01v13.61
				c0,0.54,0.11,0.99,0.33,1.35c0.21,0.35,0.55,0.62,0.99,0.81c0.35,0.16,0.72,0.28,1.09,0.36c0.38,0.08,0.79,0.14,1.24,0.17v1.58
				h-11.59v-1.58c0.37-0.03,0.75-0.07,1.14-0.11c0.4-0.04,0.73-0.1,1-0.18c0.44-0.14,0.78-0.4,1-0.76c0.22-0.36,0.33-0.83,0.33-1.4
				v-27.57c0-0.55-0.13-1.09-0.37-1.63c-0.25-0.54-0.57-0.95-0.97-1.23c-0.29-0.21-0.8-0.36-1.52-0.44
				c-0.73-0.09-1.32-0.15-1.76-0.18v-1.54l8.76-0.53l0.33,0.36v16.51h0.1c0.53-0.53,1.01-1,1.44-1.4c0.43-0.41,1-0.84,1.71-1.28
				c0.61-0.38,1.33-0.71,2.15-0.96c0.83-0.26,1.75-0.38,2.78-0.38c2.12,0,3.74,0.67,4.88,2c1.14,1.34,1.71,3.26,1.71,5.77v12.31
				c0,0.56,0.1,1.01,0.3,1.36c0.2,0.34,0.54,0.61,1,0.8c0.37,0.14,0.7,0.25,1,0.32c0.3,0.07,0.69,0.12,1.17,0.16V505.35
				L491.05,505.35z"/>
			<path style="fill:#003DA6;" d="M509.63,490.76c0-0.89-0.08-1.85-0.23-2.87c-0.15-1.02-0.39-1.87-0.73-2.56
				c-0.37-0.73-0.87-1.33-1.51-1.79c-0.64-0.46-1.46-0.7-2.47-0.7c-1.68,0-3.07,0.7-4.19,2.09c-1.11,1.4-1.71,3.34-1.81,5.83H509.63
				L509.63,490.76z M514.93,499.78c-0.99,1.89-2.32,3.39-3.98,4.51c-1.66,1.12-3.57,1.68-5.73,1.68c-1.9,0-3.57-0.33-5-1.01
				c-1.43-0.67-2.61-1.58-3.54-2.73c-0.93-1.15-1.62-2.5-2.08-4.03c-0.46-1.54-0.68-3.16-0.68-4.87c0-1.54,0.24-3.04,0.73-4.52
				c0.49-1.48,1.21-2.81,2.15-4c0.91-1.13,2.04-2.05,3.39-2.75c1.35-0.7,2.87-1.04,4.55-1.04c1.73,0,3.21,0.27,4.44,0.82
				c1.23,0.54,2.23,1.29,3,2.23c0.74,0.9,1.28,1.95,1.64,3.17c0.36,1.21,0.54,2.54,0.54,3.96v1.58h-15.67
				c0,1.55,0.15,2.97,0.44,4.23c0.29,1.27,0.76,2.38,1.4,3.34c0.62,0.93,1.44,1.66,2.45,2.2c1.01,0.54,2.21,0.81,3.6,0.81
				c1.42,0,2.65-0.33,3.68-1c1.03-0.67,2.03-1.87,2.99-3.61L514.93,499.78L514.93,499.78z"/>
			<path style="fill:#003DA6;" d="M545.12,506.16c-2.03,0-3.98-0.4-5.84-1.2s-3.51-1.95-4.95-3.46c-1.42-1.51-2.56-3.34-3.4-5.51
				c-0.85-2.17-1.27-4.62-1.27-7.34c0-2.72,0.42-5.19,1.25-7.41c0.83-2.22,1.98-4.13,3.45-5.73c1.46-1.58,3.17-2.81,5.15-3.67
				c1.98-0.87,4.1-1.3,6.35-1.3c1.68,0,3.2,0.21,4.55,0.62c1.36,0.42,2.65,1,3.88,1.75l0.98-1.63h1.92l0.21,12.14h-1.97
				c-0.26-1.18-0.64-2.47-1.15-3.85c-0.51-1.38-1.11-2.56-1.8-3.52c-0.77-1.09-1.68-1.94-2.73-2.56c-1.05-0.61-2.26-0.92-3.62-0.92
				c-1.55,0-2.99,0.34-4.33,1.03c-1.33,0.69-2.49,1.71-3.46,3.05c-0.93,1.3-1.65,2.95-2.18,4.95c-0.53,2-0.79,4.24-0.79,6.7
				c0,2.18,0.28,4.17,0.83,5.99c0.55,1.82,1.34,3.42,2.36,4.79c1.02,1.36,2.23,2.43,3.63,3.2c1.4,0.77,2.96,1.15,4.68,1.15
				c1.29,0,2.49-0.2,3.57-0.61c1.09-0.41,2.03-0.95,2.83-1.62c0.8-0.71,1.5-1.5,2.11-2.4c0.61-0.9,1.1-1.87,1.49-2.93l1.8,0.86
				c-1.37,3.38-3.19,5.79-5.46,7.23C550.95,505.44,548.25,506.16,545.12,506.16L545.12,506.16z"/>
			<path style="fill:#003DA6;" d="M579.18,493.32c0-1.2-0.12-2.47-0.36-3.8c-0.24-1.34-0.6-2.47-1.08-3.4
				c-0.51-0.99-1.19-1.79-2.02-2.39c-0.83-0.6-1.85-0.9-3.05-0.9c-1.23,0-2.29,0.3-3.16,0.91c-0.87,0.61-1.58,1.44-2.13,2.5
				c-0.51,0.98-0.87,2.09-1.08,3.33c-0.21,1.25-0.31,2.46-0.31,3.62c0,1.53,0.12,2.96,0.37,4.26c0.25,1.3,0.64,2.47,1.19,3.49
				c0.54,1.02,1.23,1.83,2.05,2.41c0.83,0.58,1.85,0.88,3.06,0.88c2,0,3.59-0.97,4.76-2.9C578.59,499.4,579.18,496.73,579.18,493.32
				L579.18,493.32z M584.14,493.28c0,1.66-0.26,3.3-0.79,4.91c-0.53,1.61-1.28,2.97-2.26,4.09c-1.11,1.28-2.39,2.23-3.84,2.85
				c-1.46,0.62-3.09,0.94-4.9,0.94c-1.5,0-2.94-0.28-4.3-0.85s-2.57-1.4-3.63-2.48c-1.04-1.07-1.87-2.38-2.49-3.92
				c-0.62-1.54-0.92-3.27-0.92-5.19c0-3.7,1.08-6.72,3.23-9.07c2.15-2.35,4.98-3.53,8.47-3.53c3.31,0,6.05,1.12,8.2,3.35
				C583.07,486.59,584.14,489.57,584.14,493.28L584.14,493.28z"/>
			<path style="fill:#003DA6;" d="M628.03,505.35h-11.52v-1.58c0.37-0.03,0.74-0.06,1.11-0.1c0.38-0.03,0.71-0.09,1-0.19
				c0.45-0.14,0.78-0.4,1-0.76c0.22-0.36,0.33-0.83,0.33-1.4V489.1c0-1.66-0.38-2.95-1.14-3.85c-0.76-0.9-1.71-1.36-2.84-1.36
				c-0.78,0-1.52,0.12-2.21,0.36c-0.69,0.24-1.32,0.58-1.9,1.01c-0.46,0.35-0.85,0.73-1.16,1.14s-0.55,0.75-0.71,1.02v13.65
				c0,0.56,0.09,1.02,0.29,1.38s0.52,0.63,0.98,0.83c0.37,0.14,0.7,0.25,1,0.32c0.3,0.07,0.68,0.12,1.16,0.16v1.58h-11.28v-1.58
				c0.37-0.03,0.72-0.06,1.07-0.1c0.34-0.03,0.66-0.09,0.95-0.19c0.45-0.14,0.78-0.4,1-0.76c0.22-0.36,0.32-0.83,0.32-1.4V489.1
				c0-1.66-0.38-2.95-1.14-3.85c-0.76-0.9-1.71-1.36-2.85-1.36c-0.79,0-1.52,0.12-2.21,0.37c-0.69,0.25-1.32,0.59-1.9,1.02
				c-0.46,0.35-0.86,0.75-1.18,1.19c-0.32,0.44-0.56,0.77-0.72,1v13.56c0,0.54,0.11,1,0.34,1.37c0.22,0.37,0.56,0.65,1.01,0.84
				c0.34,0.16,0.68,0.28,1.03,0.36c0.35,0.08,0.74,0.14,1.18,0.17v1.58h-11.49v-1.58c0.37-0.03,0.75-0.06,1.14-0.1
				c0.39-0.03,0.73-0.09,1.02-0.19c0.45-0.14,0.78-0.4,1-0.75c0.21-0.36,0.32-0.83,0.32-1.4v-14.69c0-0.51-0.12-0.97-0.35-1.38
				c-0.23-0.41-0.56-0.75-0.97-1.04c-0.3-0.19-0.68-0.35-1.13-0.47c-0.45-0.12-0.91-0.19-1.39-0.23v-1.58l7.92-0.53l0.33,0.34v3.38
				h0.17c0.4-0.4,0.89-0.87,1.46-1.42c0.58-0.54,1.11-0.98,1.61-1.32c0.56-0.38,1.26-0.71,2.1-0.96c0.84-0.26,1.75-0.38,2.72-0.38
				c1.54,0,2.85,0.41,3.96,1.24c1.1,0.82,1.9,1.82,2.38,2.99c0.57-0.56,1.08-1.05,1.52-1.48c0.44-0.42,1.02-0.88,1.74-1.36
				c0.61-0.42,1.32-0.75,2.14-1.01c0.82-0.26,1.74-0.38,2.74-0.38c2,0,3.58,0.66,4.74,1.97c1.17,1.31,1.75,3.33,1.75,6.05v12.02
				c0,0.56,0.1,1.02,0.29,1.38s0.52,0.63,0.98,0.83c0.37,0.14,0.73,0.25,1.09,0.32c0.36,0.07,0.76,0.12,1.21,0.16V505.35
				L628.03,505.35z"/>
			<path style="fill:#003DA6;" d="M671.31,505.35h-11.52v-1.58c0.37-0.03,0.74-0.06,1.12-0.1c0.38-0.03,0.71-0.09,1-0.19
				c0.45-0.14,0.78-0.4,1-0.76c0.22-0.36,0.32-0.83,0.32-1.4V489.1c0-1.66-0.38-2.95-1.14-3.85c-0.76-0.9-1.71-1.36-2.84-1.36
				c-0.78,0-1.52,0.12-2.21,0.36c-0.69,0.24-1.32,0.58-1.9,1.01c-0.46,0.35-0.85,0.73-1.16,1.14c-0.31,0.41-0.55,0.75-0.71,1.02
				v13.65c0,0.56,0.1,1.02,0.29,1.38c0.19,0.36,0.52,0.63,0.98,0.83c0.37,0.14,0.7,0.25,1,0.32c0.3,0.07,0.68,0.12,1.16,0.16v1.58
				h-11.28v-1.58c0.37-0.03,0.72-0.06,1.07-0.1c0.34-0.03,0.66-0.09,0.95-0.19c0.45-0.14,0.78-0.4,1-0.76
				c0.22-0.36,0.32-0.83,0.32-1.4V489.1c0-1.66-0.38-2.95-1.14-3.85c-0.76-0.9-1.71-1.36-2.85-1.36c-0.79,0-1.52,0.12-2.21,0.37
				s-1.32,0.59-1.9,1.02c-0.46,0.35-0.86,0.75-1.18,1.19c-0.32,0.44-0.56,0.77-0.72,1v13.56c0,0.54,0.11,1,0.34,1.37
				s0.56,0.65,1.01,0.84c0.34,0.16,0.68,0.28,1.03,0.36c0.35,0.08,0.74,0.14,1.17,0.17v1.58h-11.49v-1.58
				c0.37-0.03,0.75-0.06,1.14-0.1c0.39-0.03,0.73-0.09,1.02-0.19c0.45-0.14,0.78-0.4,1-0.75c0.22-0.36,0.32-0.83,0.32-1.4v-14.69
				c0-0.51-0.12-0.97-0.35-1.38c-0.23-0.41-0.56-0.75-0.97-1.04c-0.3-0.19-0.68-0.35-1.13-0.47c-0.45-0.12-0.91-0.19-1.39-0.23
				v-1.58l7.92-0.53l0.34,0.34v3.38h0.17c0.4-0.4,0.89-0.87,1.46-1.42c0.58-0.54,1.11-0.98,1.61-1.32c0.56-0.38,1.26-0.71,2.1-0.96
				c0.84-0.26,1.75-0.38,2.72-0.38c1.54,0,2.86,0.41,3.96,1.24c1.1,0.82,1.89,1.82,2.38,2.99c0.57-0.56,1.08-1.05,1.52-1.48
				c0.44-0.42,1.02-0.88,1.74-1.36c0.61-0.42,1.32-0.75,2.14-1.01c0.82-0.26,1.74-0.38,2.74-0.38c2,0,3.58,0.66,4.74,1.97
				c1.16,1.31,1.75,3.33,1.75,6.05v12.02c0,0.56,0.1,1.02,0.29,1.38c0.19,0.36,0.52,0.63,0.99,0.83c0.37,0.14,0.73,0.25,1.09,0.32
				c0.36,0.07,0.76,0.12,1.21,0.16V505.35L671.31,505.35z"/>
			<path style="fill:#003DA6;" d="M692.23,493.32c0-1.2-0.12-2.47-0.36-3.8c-0.24-1.34-0.6-2.47-1.08-3.4
				c-0.51-0.99-1.19-1.79-2.02-2.39c-0.83-0.6-1.85-0.9-3.05-0.9c-1.24,0-2.29,0.3-3.16,0.91c-0.87,0.61-1.58,1.44-2.13,2.5
				c-0.51,0.98-0.88,2.09-1.08,3.33c-0.21,1.25-0.31,2.46-0.31,3.62c0,1.53,0.12,2.96,0.37,4.26c0.25,1.3,0.64,2.47,1.19,3.49
				c0.54,1.02,1.23,1.83,2.05,2.41s1.85,0.88,3.07,0.88c2,0,3.59-0.97,4.76-2.9C691.64,499.4,692.23,496.73,692.23,493.32
				L692.23,493.32z M697.19,493.28c0,1.66-0.26,3.3-0.79,4.91c-0.53,1.61-1.28,2.97-2.26,4.09c-1.11,1.28-2.39,2.23-3.84,2.85
				c-1.46,0.62-3.09,0.94-4.9,0.94c-1.51,0-2.94-0.28-4.3-0.85c-1.36-0.57-2.57-1.4-3.63-2.48c-1.04-1.07-1.87-2.38-2.49-3.92
				c-0.62-1.54-0.92-3.27-0.92-5.19c0-3.7,1.08-6.72,3.23-9.07c2.15-2.35,4.98-3.53,8.46-3.53c3.32,0,6.05,1.12,8.2,3.35
				S697.19,489.57,697.19,493.28L697.19,493.28z"/>
			<path style="fill:#003DA6;" d="M726.73,505.35h-11.56v-1.58c0.37-0.03,0.77-0.06,1.21-0.1c0.44-0.03,0.8-0.09,1.09-0.19
				c0.45-0.14,0.78-0.4,1-0.76c0.21-0.36,0.32-0.83,0.32-1.4v-12.17c0-1.68-0.4-2.97-1.19-3.89c-0.79-0.91-1.76-1.37-2.9-1.37
				c-0.85,0-1.63,0.13-2.33,0.4c-0.71,0.26-1.33,0.59-1.88,0.97c-0.53,0.37-0.95,0.77-1.26,1.19c-0.31,0.42-0.54,0.76-0.69,1.02
				v13.61c0,0.54,0.11,0.99,0.34,1.35c0.22,0.35,0.56,0.62,1.01,0.81c0.33,0.16,0.7,0.28,1.09,0.36c0.39,0.08,0.8,0.14,1.21,0.17
				v1.58H700.6v-1.58c0.37-0.03,0.75-0.06,1.14-0.1c0.39-0.03,0.73-0.09,1.02-0.19c0.45-0.14,0.78-0.4,1-0.75
				c0.22-0.36,0.33-0.83,0.33-1.4v-14.6c0-0.54-0.12-1.04-0.35-1.5c-0.23-0.46-0.56-0.83-0.97-1.12c-0.3-0.19-0.67-0.33-1.08-0.42
				c-0.42-0.09-0.86-0.15-1.34-0.18v-1.58l7.87-0.53l0.34,0.34v3.34h0.12c0.38-0.38,0.87-0.84,1.44-1.38
				c0.57-0.54,1.12-0.97,1.63-1.31c0.59-0.38,1.29-0.71,2.11-0.96c0.82-0.26,1.74-0.38,2.76-0.38c2.27,0,3.95,0.71,5.05,2.12
				c1.09,1.42,1.64,3.3,1.64,5.65v12.31c0,0.56,0.1,1.01,0.29,1.36c0.19,0.34,0.52,0.61,0.98,0.8c0.38,0.16,0.71,0.27,0.99,0.34
				c0.28,0.06,0.67,0.11,1.17,0.14V505.35L726.73,505.35z"/>
			<path style="fill:#003DA6;" d="M775.05,491.76c-0.38,0.05-0.9,0.12-1.55,0.23c-0.65,0.1-1.17,0.25-1.57,0.44
				c-0.48,0.24-0.82,0.58-1.02,1.02c-0.2,0.44-0.3,0.96-0.3,1.55v2.64c0,1.92,0.01,3.21,0.04,3.89c0.02,0.67,0.05,1.22,0.08,1.66
				c-2.13,0.96-4.25,1.69-6.36,2.21c-2.11,0.51-4.18,0.77-6.21,0.77c-2.18,0-4.27-0.41-6.29-1.22c-2.02-0.82-3.78-1.98-5.28-3.48
				c-1.52-1.52-2.73-3.37-3.62-5.55c-0.89-2.18-1.34-4.61-1.34-7.3c0-2.59,0.43-5,1.28-7.22c0.86-2.22,2.07-4.14,3.63-5.77
				c1.52-1.6,3.33-2.85,5.44-3.73c2.1-0.89,4.35-1.33,6.75-1.33c1.92,0,3.59,0.23,5.01,0.7c1.42,0.46,2.68,1.02,3.77,1.68l0.98-1.63
				h1.92l0.22,11.9h-1.97c-0.34-1.31-0.75-2.6-1.25-3.87c-0.5-1.27-1.14-2.41-1.92-3.42c-0.78-1.01-1.74-1.81-2.87-2.41
				c-1.13-0.6-2.48-0.9-4.05-0.9c-1.71,0-3.24,0.35-4.59,1.04c-1.34,0.7-2.51,1.73-3.51,3.11c-0.98,1.33-1.73,2.99-2.26,4.97
				c-0.53,1.99-0.79,4.2-0.79,6.65c0,2.16,0.26,4.2,0.78,6.11c0.52,1.91,1.28,3.57,2.27,4.96c0.99,1.42,2.23,2.55,3.72,3.36
				c1.49,0.82,3.18,1.22,5.07,1.22c1.41,0,2.69-0.22,3.85-0.65c1.16-0.43,1.98-0.89,2.46-1.37c0.13-0.83,0.2-1.67,0.21-2.52
				c0.01-0.85,0.01-1.57,0.01-2.16v-1.87c0-0.67-0.09-1.27-0.28-1.79c-0.18-0.52-0.56-0.9-1.14-1.14c-0.53-0.24-1.25-0.42-2.15-0.54
				c-0.9-0.12-1.61-0.2-2.12-0.23v-1.75h14.92V491.76L775.05,491.76z"/>
			<path style="fill:#003DA6;" d="M795.23,493.32c0-1.2-0.12-2.47-0.36-3.8c-0.24-1.34-0.6-2.47-1.08-3.4
				c-0.51-0.99-1.19-1.79-2.02-2.39c-0.83-0.6-1.85-0.9-3.05-0.9c-1.23,0-2.29,0.3-3.16,0.91c-0.87,0.61-1.58,1.44-2.13,2.5
				c-0.51,0.98-0.87,2.09-1.08,3.33s-0.31,2.46-0.31,3.62c0,1.53,0.12,2.96,0.37,4.26s0.64,2.47,1.19,3.49
				c0.54,1.02,1.23,1.83,2.05,2.41s1.85,0.88,3.06,0.88c2,0,3.59-0.97,4.76-2.9C794.64,499.4,795.23,496.73,795.23,493.32
				L795.23,493.32z M800.2,493.28c0,1.66-0.26,3.3-0.79,4.91c-0.53,1.61-1.28,2.97-2.26,4.09c-1.1,1.28-2.38,2.23-3.84,2.85
				c-1.46,0.62-3.09,0.94-4.9,0.94c-1.51,0-2.94-0.28-4.3-0.85c-1.36-0.57-2.57-1.4-3.63-2.48c-1.04-1.07-1.87-2.38-2.49-3.92
				c-0.62-1.54-0.92-3.27-0.92-5.19c0-3.7,1.08-6.72,3.23-9.07c2.15-2.35,4.98-3.53,8.47-3.53c3.31,0,6.05,1.12,8.2,3.35
				C799.12,486.59,800.2,489.57,800.2,493.28L800.2,493.28z"/>
			<path style="fill:#003DA6;" d="M821.72,493.32c0-1.2-0.12-2.47-0.36-3.8c-0.24-1.34-0.6-2.47-1.08-3.4
				c-0.51-0.99-1.19-1.79-2.02-2.39c-0.83-0.6-1.85-0.9-3.05-0.9c-1.23,0-2.29,0.3-3.16,0.91c-0.87,0.61-1.58,1.44-2.13,2.5
				c-0.51,0.98-0.87,2.09-1.08,3.33s-0.31,2.46-0.31,3.62c0,1.53,0.12,2.96,0.37,4.26c0.25,1.3,0.64,2.47,1.19,3.49
				c0.54,1.02,1.23,1.83,2.06,2.41s1.85,0.88,3.06,0.88c2,0,3.59-0.97,4.76-2.9C821.13,499.4,821.72,496.73,821.72,493.32
				L821.72,493.32z M826.68,493.28c0,1.66-0.26,3.3-0.79,4.91c-0.53,1.61-1.28,2.97-2.26,4.09c-1.11,1.28-2.39,2.23-3.84,2.85
				c-1.46,0.62-3.09,0.94-4.9,0.94c-1.5,0-2.94-0.28-4.3-0.85c-1.36-0.57-2.57-1.4-3.63-2.48c-1.04-1.07-1.87-2.38-2.49-3.92
				c-0.61-1.54-0.92-3.27-0.92-5.19c0-3.7,1.08-6.72,3.23-9.07c2.15-2.35,4.97-3.53,8.46-3.53c3.32,0,6.05,1.12,8.2,3.35
				C825.6,486.59,826.68,489.57,826.68,493.28L826.68,493.28z"/>
			<path style="fill:#003DA6;" d="M847.31,500.76v-13.85c-0.13-0.42-0.33-0.86-0.62-1.34c-0.29-0.48-0.64-0.92-1.08-1.32
				c-0.46-0.4-1-0.73-1.63-1c-0.62-0.26-1.35-0.4-2.18-0.4c-0.96,0-1.84,0.25-2.65,0.74c-0.81,0.5-1.52,1.21-2.14,2.14
				c-0.59,0.9-1.06,2.04-1.4,3.42c-0.34,1.38-0.52,2.92-0.52,4.6c0,1.34,0.13,2.56,0.38,3.66c0.25,1.1,0.69,2.12,1.29,3.06
				c0.56,0.9,1.27,1.62,2.15,2.16c0.87,0.54,1.9,0.82,3.1,0.82c1.28,0,2.33-0.28,3.17-0.84
				C846.04,502.05,846.74,501.44,847.31,500.76L847.31,500.76z M856,504.91l-8.27,0.53l-0.36-0.34v-2.21l-0.19-0.05
				c-0.83,0.93-1.86,1.69-3.08,2.28c-1.22,0.59-2.48,0.89-3.77,0.89c-1.34,0-2.64-0.3-3.89-0.9c-1.25-0.6-2.34-1.44-3.27-2.53
				c-0.94-1.1-1.69-2.43-2.24-3.98c-0.55-1.55-0.83-3.26-0.83-5.14c0-1.71,0.3-3.33,0.89-4.87c0.59-1.54,1.41-2.88,2.44-4.03
				c0.97-1.07,2.17-1.93,3.58-2.57c1.41-0.64,2.86-0.96,4.33-0.96c1.1,0,2.18,0.14,3.25,0.42c1.06,0.28,1.98,0.63,2.74,1.07v-8.25
				c0-0.67-0.11-1.29-0.34-1.84c-0.22-0.55-0.54-0.97-0.93-1.26c-0.45-0.3-1.05-0.52-1.81-0.66c-0.76-0.14-1.58-0.24-2.46-0.3v-1.49
				l9.69-0.53l0.36,0.36v31.89c0,0.56,0.11,1.04,0.32,1.43c0.22,0.39,0.53,0.72,0.95,1c0.3,0.19,0.74,0.31,1.32,0.36
				c0.57,0.05,1.1,0.08,1.58,0.1V504.91L856,504.91z"/>
		</g>
		<g>
			<g>
				<path d="M178.2,296.17c-0.92,0.18-2.88,0.37-3.86,0.86c-1.23,0.55-1.65,1.72-1.65,3.18v3.3v4.84c0.06,0.79,0.06,1.53,0.12,2.08
					c-5.33,2.39-10.53,3.67-15.61,3.67c-5.45,0-10.71-2.14-14.45-5.88c-3.73-3.73-6.18-9.31-6.18-15.98c0-6.43,2.2-12.06,6.12-16.16
					c3.86-3.98,9.25-6.31,15.18-6.31c4.84,0,8.27,1.29,10.96,2.94l1.22-2.02h2.39l0.24,14.82h-2.45c-0.8-3.25-1.96-6.55-3.92-9.06
					c-1.96-2.51-4.71-4.16-8.63-4.16c-4.22,0-7.59,1.78-10.04,5.2c-2.45,3.24-3.79,8.39-3.79,14.45c0,5.39,1.28,10.35,3.79,13.77
					c2.45,3.61,6.25,5.76,10.9,5.76c3.49,0,6.67-1.35,7.9-2.51c0.3-2.14,0.24-4.41,0.24-5.88v-2.33c0-1.65-0.3-3.06-1.77-3.61
					c-1.29-0.67-4.04-0.92-5.27-0.98v-2.14h18.55V296.17L178.2,296.17z"/>
				<path d="M193.98,313.13H179.6v-1.96c0.92-0.06,2.02-0.18,2.76-0.36c1.04-0.31,1.65-1.23,1.65-2.7v-31.23
					c0-1.41-0.67-2.76-1.65-3.49c-0.74-0.49-3.12-0.92-4.29-0.98v-1.96l11.08-0.67l0.43,0.43v37.53c0,1.41,0.49,2.27,1.66,2.76
					c0.92,0.43,1.71,0.61,2.75,0.67V313.13L193.98,313.13z"/>
				<path d="M457.43,313.13h-14.39v-1.96c0.92-0.06,2.02-0.18,2.76-0.36c1.04-0.31,1.65-1.23,1.65-2.7v-31.23
					c0-1.41-0.67-2.76-1.65-3.49c-0.74-0.49-3.12-0.92-4.29-0.98v-1.96l11.08-0.67l0.43,0.43v37.53c0,1.41,0.49,2.27,1.65,2.76
					c0.92,0.43,1.71,0.61,2.75,0.67V313.13L457.43,313.13z"/>
				<path d="M214.55,296.79c-3.43,1.04-5.82,1.84-8.02,3.31c-1.96,1.29-3.25,3.18-3.25,5.7c0,3.24,1.96,4.78,4.59,4.78
					c2.88,0,5.02-1.53,6.49-3.43L214.55,296.79L214.55,296.79z M224.96,312.58c-1.9,0.73-3.06,1.16-4.84,1.16
					c-3.12,0-5.02-1.53-5.51-4.29h-0.18c-2.63,2.88-5.39,4.41-9.55,4.41c-4.41,0-7.59-2.94-7.59-7.35c0-2.27,0.67-4.04,1.9-5.45
					c1.04-1.22,2.88-2.2,4.29-2.75c0.92-0.31,2.69-0.92,5.45-1.84c2.75-0.92,4.59-1.65,5.57-2.2v-2.94c0-0.49-0.18-2.2-0.86-3.61
					c-0.79-1.47-2.14-2.7-4.77-2.7c-1.9,0-3.55,0.74-4.22,1.41c0,0.8,0.55,2.63,0.55,3.92c0,1.41-1.35,2.75-3.55,2.75
					c-2.02,0-2.94-1.65-2.94-3.43c0-1.77,1.41-3.55,3.55-4.84c1.78-1.16,4.53-2.02,6.98-2.02c3.37,0,5.76,0.31,7.78,1.83
					c2.02,1.47,3.12,3.92,3.12,7.9c0,5.63-0.18,9.55-0.18,14.76c0,1.53,0.49,2.39,1.65,3.06c0.55,0.31,2.08,0.31,3.37,0.31V312.58
					L224.96,312.58z"/>
				<path d="M249.32,304.63c0,2.75-1.04,4.96-3.12,6.73c-2.02,1.71-4.65,2.57-7.9,2.57c-3.43,0-6.61-1.65-7.84-2.63l-0.61,1.9h-2.2
					l-0.3-10.23h2.02c0.31,1.53,1.47,3.86,2.94,5.51c1.53,1.78,3.73,3.13,6.43,3.13c3.86,0,6-1.78,6-5.02
					c0-1.65-0.67-2.82-1.96-3.74c-1.28-0.98-3.24-1.65-5.63-2.39c-1.9-0.49-4.41-1.53-6.06-2.82c-1.71-1.47-3-3.43-3-6.18
					c0-2.39,0.92-4.47,2.69-6.13c1.77-1.65,4.22-2.51,7.22-2.51c2.27,0,4.96,0.74,6.49,1.53l0.67-1.59h2.14l0.49,9.49h-2.08
					c-0.79-4.22-3.79-7.16-7.77-7.16c-3.25,0-5.27,1.96-5.27,4.23c0,1.77,0.61,2.94,1.84,3.74c1.22,0.79,2.94,1.41,5.63,2.33
					c2.63,0.79,5.08,2.02,6.61,3.3C248.4,300.15,249.32,301.93,249.32,304.63L249.32,304.63z"/>
				<path d="M264.92,284.97c-1.9,0-3.24,0.8-4.04,2.21c-0.8,1.29-1.1,3.31-1.1,5.27c0,4.41,2.08,7.47,5.2,7.47
					c3.43,0,5.33-3.12,5.33-7.29C270.31,287.91,268.35,284.97,264.92,284.97L264.92,284.97z M272.88,313.13
					c-1.04-0.18-4.84-0.43-9.43-0.43c-4.34,0.8-6,2.76-6,5.88c0,1.41,0.55,2.76,2.02,3.8c1.41,1.04,3.74,1.78,7.1,1.78
					c5.88,0,9.49-2.2,9.49-6.86C276.07,315.09,275.03,313.62,272.88,313.13L272.88,313.13z M280.96,316.2
					c0,2.88-1.29,5.45-3.73,7.22c-2.69,1.9-6.25,3-11.69,3c-8.88,0-13.28-2.63-13.28-7.72c0-3.98,3.55-6.49,8.45-6.73v-0.37
					c-1.16-0.43-2.57-0.92-3.49-1.65c-1.04-0.8-1.71-1.9-1.71-3.55c0-2.15,1.47-3.98,4.47-5.2v-0.49c-3.73-1.78-6-4.59-6-8.33
					c0-2.75,1.04-5.08,3.12-6.86c2.08-1.78,4.71-2.69,7.96-2.69c1.77,0,3.61,0.43,5.38,0.98h10.29v2.81h-6.92v0.19
					c1.47,1.72,2.2,3.92,2.2,5.94c0,2.57-1.04,4.78-3.18,6.55c-2.08,1.77-4.53,2.69-7.35,2.69h-3.61c-0.92,0.3-2.14,1.1-2.14,2.57
					c0,1.47,0.92,2.2,2.14,2.45c1.16,0.31,2.69,0.37,4.41,0.43c0.85,0,2.02,0.06,3.55,0.18c1.53,0.06,2.63,0.12,3.25,0.18
					c1.9,0.06,3.79,0.86,5.33,2.27C279.92,311.6,280.96,313.44,280.96,316.2L280.96,316.2z"/>
				<path d="M303.79,289.19c-1.28-2.45-3.31-4.1-6.3-4.1c-3.12,0-5.27,1.59-6.55,4.23c-1.29,2.45-1.78,5.76-1.78,8.7
					c0,3.85,0.55,7.04,1.96,9.67c1.41,2.51,3.37,4.1,6.37,4.1c4.96,0,8.08-5.14,8.08-13.66
					C305.57,295.19,305.02,291.46,303.79,289.19L303.79,289.19z M307.96,309.34c-2.69,3.18-6.37,4.71-10.84,4.71
					c-3.73,0-7.22-1.47-9.86-4.16c-2.63-2.69-4.29-6.55-4.29-11.39c0-4.59,1.35-8.39,4.04-11.27c2.69-2.94,6.18-4.41,10.53-4.41
					c4.1,0,7.53,1.41,10.16,4.16c2.69,2.76,4.04,6.49,4.04,11.08C311.75,302.24,310.4,306.46,307.96,309.34L307.96,309.34z"/>
				<path d="M358.4,285.58c-1.65,0.18-3.86,1.35-4.78,3.8c-2.02,5.88-3.61,10.66-5.82,17.21c-0.73,2.02-1.53,4.59-2.08,6.73h-2.57
					l-7.9-21.67l-8.02,21.67h-2.45c-1.47-4.41-2.94-8.75-4.35-13.1c-1.41-4.35-2.7-8.14-3.8-11.39c-0.67-1.9-2.75-3-4.41-3.18v-1.96
					h13.1v2.08c-1.29,0-3.25,0.37-3.25,1.29c0,0.18,0.12,0.79,0.37,1.35c1.22,4.16,2.76,8.82,5.27,17.08l7.53-21.25h2.88l7.65,20.94
					c1.71-5.33,3.55-10.41,4.84-14.82c0.24-0.98,0.55-1.78,0.55-2.69c0-0.67-0.67-1.29-1.65-1.59c-0.73-0.31-1.84-0.49-2.33-0.49
					v-1.9h11.2V285.58L358.4,285.58z"/>
				<path d="M379.14,308.3c-3.49-3.74-5.82-9.19-5.82-15.98c0-6.8,2.2-12.37,5.88-16.35c3.61-3.92,8.69-6.18,14.33-6.18
					c4.16,0,7.41,1.04,10.53,2.94l1.22-2.02h2.39l0.31,15.12h-2.51c-0.55-2.94-1.96-6.74-3.67-9.18c-1.9-2.7-4.47-4.35-7.9-4.35
					c-3.86,0-7.29,1.71-9.74,5.14c-2.27,3.18-3.67,8.33-3.67,14.45c0,5.45,1.35,10.04,3.98,13.47c2.51,3.37,6,5.39,10.35,5.39
					c3.24,0,6-1.1,8.02-2.75c1.96-1.78,3.49-4.04,4.47-6.67l2.2,1.1c-3.43,8.39-9.06,11.7-16.9,11.7
					C387.53,314.12,382.75,312.03,379.14,308.3L379.14,308.3z"/>
				<path d="M429.33,296.79c-3.43,1.04-5.82,1.84-8.02,3.31c-1.96,1.29-3.25,3.18-3.25,5.7c0,3.24,1.96,4.78,4.59,4.78
					c2.88,0,5.02-1.53,6.49-3.43L429.33,296.79L429.33,296.79z M439.74,312.58c-1.9,0.73-3.06,1.16-4.83,1.16
					c-3.12,0-5.02-1.53-5.51-4.29h-0.18c-2.63,2.88-5.39,4.41-9.55,4.41c-4.41,0-7.59-2.94-7.59-7.35c0-2.27,0.67-4.04,1.9-5.45
					c1.04-1.22,2.88-2.2,4.28-2.75c0.92-0.31,2.69-0.92,5.45-1.84c2.75-0.92,4.59-1.65,5.57-2.2v-2.94c0-0.49-0.18-2.2-0.86-3.61
					c-0.79-1.47-2.14-2.7-4.77-2.7c-1.9,0-3.55,0.74-4.23,1.41c0,0.8,0.55,2.63,0.55,3.92c0,1.41-1.35,2.75-3.55,2.75
					c-2.02,0-2.94-1.65-2.94-3.43c0-1.77,1.41-3.55,3.55-4.84c1.77-1.16,4.53-2.02,6.98-2.02c3.37,0,5.76,0.31,7.78,1.83
					c2.02,1.47,3.12,3.92,3.12,7.9c0,5.63-0.18,9.55-0.18,14.76c0,1.53,0.49,2.39,1.65,3.06c0.55,0.31,2.08,0.31,3.37,0.31V312.58
					L439.74,312.58z"/>
				<path d="M479.46,294.95c0-2.2-0.31-5.08-1.23-6.8c-0.92-1.78-2.45-3.06-4.96-3.06c-4.16,0-7.22,3.67-7.47,9.86H479.46
					L479.46,294.95z M486.07,306.21c-2.45,4.65-6.73,7.71-12.12,7.71c-4.71,0-8.26-1.77-10.65-4.65c-2.27-2.94-3.43-6.8-3.43-11.14
					c0-3.86,1.23-7.65,3.61-10.59c2.27-2.88,5.69-4.71,9.86-4.71c4.35,0,7.35,1.41,9.31,3.79c1.78,2.21,2.69,5.27,2.69,8.88v1.96
					h-19.53c0,3.92,0.67,7.04,2.33,9.43c1.53,2.26,4.04,3.73,7.53,3.73s5.88-1.47,8.33-5.69L486.07,306.21L486.07,306.21z"/>
				<path d="M510.31,290.17c-0.31-1.04-1.04-2.33-2.08-3.31c-1.22-0.98-2.75-1.78-4.77-1.78c-2.39,0-4.47,1.35-6,3.61
					c-1.47,2.2-2.39,5.82-2.39,9.98c0,3.37,0.61,6,2.08,8.39c1.41,2.21,3.61,3.67,6.55,3.67c3.18,0,5.2-1.65,6.61-3.31V290.17
					L510.31,290.17z M521.09,312.58l-10.22,0.67l-0.49-0.43v-2.75l-0.25-0.06c-2.02,2.39-5.33,3.98-8.51,3.98
					c-3.37,0-6.67-1.59-8.94-4.29c-2.39-2.75-3.86-6.73-3.86-11.39c0-4.23,1.53-8.21,4.16-11.08c2.45-2.7,6.18-4.41,9.86-4.41
					c2.75,0,5.57,0.74,7.47,1.9v-7.35c0-1.65-0.55-3.12-1.59-3.86c-1.04-0.74-3.12-0.98-5.33-1.17v-1.9l12.06-0.67l0.49,0.43v36.86
					c0,1.41,0.55,2.33,1.53,3c0.8,0.49,2.45,0.55,3.61,0.55V312.58L521.09,312.58z"/>
				<path d="M542.57,289.19c-1.28-2.45-3.3-4.1-6.31-4.1c-3.12,0-5.26,1.59-6.55,4.23c-1.29,2.45-1.77,5.76-1.77,8.7
					c0,3.85,0.55,7.04,1.96,9.67c1.41,2.51,3.37,4.1,6.37,4.1c4.96,0,8.08-5.14,8.08-13.66
					C544.34,295.19,543.79,291.46,542.57,289.19L542.57,289.19z M546.73,309.34c-2.7,3.18-6.37,4.71-10.84,4.71
					c-3.73,0-7.23-1.47-9.86-4.16c-2.63-2.69-4.29-6.55-4.29-11.39c0-4.59,1.35-8.39,4.04-11.27c2.69-2.94,6.18-4.41,10.53-4.41
					c4.1,0,7.53,1.41,10.16,4.16c2.7,2.76,4.04,6.49,4.04,11.08C550.53,302.24,549.18,306.46,546.73,309.34L546.73,309.34z"/>
				<path d="M585.23,313.13h-14.45v-1.96c0.92-0.06,2.14-0.12,2.88-0.36c1.17-0.31,1.66-1.23,1.66-2.7v-15.18
					c0-4.17-2.33-6.56-5.08-6.56c-2.14,0-3.86,0.8-5.26,1.72c-1.28,0.98-2.08,2.08-2.39,2.75v16.96c0,1.41,0.49,2.2,1.65,2.69
					c0.8,0.43,1.84,0.61,2.88,0.67v1.96h-14.45v-1.96c0.92-0.06,1.96-0.12,2.69-0.36c1.16-0.31,1.65-1.23,1.65-2.7v-18.19
					c0-1.41-0.61-2.57-1.65-3.31c-0.73-0.43-1.84-0.67-3-0.73v-1.96l9.79-0.61l0.43,0.43v4.1h0.12c0.98-0.92,2.57-2.51,3.86-3.31
					c1.47-0.98,3.55-1.71,6.06-1.71c5.63,0,8.33,3.86,8.33,9.73v15.31c0,1.41,0.43,2.21,1.59,2.7c0.98,0.43,1.47,0.55,2.69,0.61
					V313.13L585.23,313.13z"/>
				<path d="M594.9,277.87c-2.02,0-3.73-1.84-3.73-3.98c0-2.21,1.71-4.1,3.73-4.1c2.26,0,3.92,1.84,3.92,3.86
					C598.82,275.91,597.1,277.87,594.9,277.87L594.9,277.87z M602.55,313.13h-14.26v-1.96c0.92-0.06,1.96-0.12,2.69-0.36
					c1.16-0.31,1.65-1.23,1.65-2.7v-18.19c0-1.29-0.61-2.39-1.65-3.12c-0.74-0.49-2.39-0.86-3.61-0.92v-1.96l10.41-0.61l0.43,0.43
					v24c0,1.41,0.49,2.33,1.65,2.76c0.92,0.31,1.65,0.61,2.69,0.67V313.13L602.55,313.13z"/>
				<path d="M221.53,335.35c-2.02,0-3.73-1.84-3.73-3.98c0-2.2,1.71-4.1,3.73-4.1c2.26,0,3.92,1.84,3.92,3.86
					C225.44,333.39,223.73,335.35,221.53,335.35L221.53,335.35z M229.18,370.62h-14.27v-1.96c0.92-0.06,1.96-0.12,2.7-0.37
					c1.16-0.31,1.65-1.23,1.65-2.69v-18.19c0-1.29-0.61-2.39-1.65-3.12c-0.74-0.49-2.39-0.86-3.61-0.92v-1.96l10.41-0.61l0.43,0.43
					v24c0,1.41,0.49,2.33,1.65,2.76c0.92,0.31,1.65,0.61,2.69,0.67V370.62L229.18,370.62z"/>
				<path d="M345.78,335.35c-2.02,0-3.74-1.84-3.74-3.98c0-2.2,1.71-4.1,3.74-4.1c2.26,0,3.92,1.84,3.92,3.86
					C349.7,333.39,347.98,335.35,345.78,335.35L345.78,335.35z M353.43,370.61h-14.27v-1.96c0.92-0.06,1.96-0.12,2.7-0.37
					c1.16-0.31,1.65-1.23,1.65-2.69v-18.18c0-1.29-0.61-2.39-1.65-3.12c-0.74-0.49-2.39-0.86-3.61-0.92v-1.96l10.41-0.61l0.43,0.43
					v24c0,1.41,0.49,2.33,1.65,2.76c0.92,0.31,1.65,0.61,2.7,0.67V370.61L353.43,370.61z"/>
				<path d="M623.06,296.79c-3.43,1.04-5.82,1.84-8.02,3.31c-1.96,1.29-3.25,3.18-3.25,5.7c0,3.24,1.96,4.78,4.59,4.78
					c2.88,0,5.02-1.53,6.49-3.43L623.06,296.79L623.06,296.79z M633.46,312.58c-1.9,0.73-3.06,1.16-4.83,1.16
					c-3.12,0-5.02-1.53-5.51-4.29h-0.18c-2.63,2.88-5.39,4.41-9.55,4.41c-4.41,0-7.59-2.94-7.59-7.35c0-2.27,0.67-4.04,1.9-5.45
					c1.04-1.22,2.88-2.2,4.28-2.75c0.92-0.31,2.69-0.92,5.45-1.84c2.75-0.92,4.59-1.65,5.57-2.2v-2.94c0-0.49-0.18-2.2-0.86-3.61
					c-0.79-1.47-2.14-2.7-4.77-2.7c-1.9,0-3.55,0.74-4.22,1.41c0,0.8,0.55,2.63,0.55,3.92c0,1.41-1.35,2.75-3.55,2.75
					c-2.02,0-2.94-1.65-2.94-3.43c0-1.77,1.41-3.55,3.55-4.84c1.78-1.16,4.53-2.02,6.98-2.02c3.37,0,5.76,0.31,7.78,1.83
					c2.02,1.47,3.12,3.92,3.12,7.9c0,5.63-0.18,9.55-0.18,14.76c0,1.53,0.49,2.39,1.65,3.06c0.55,0.31,2.08,0.31,3.37,0.31V312.58
					L633.46,312.58z"/>
				<path d="M668.35,313.13h-14.45v-1.96c0.92-0.06,2.14-0.12,2.88-0.36c1.16-0.31,1.65-1.23,1.65-2.7v-15.18
					c0-4.17-2.32-6.56-5.08-6.56c-2.14,0-3.86,0.8-5.26,1.72c-1.29,0.98-2.08,2.08-2.39,2.75v16.96c0,1.41,0.49,2.2,1.65,2.69
					c0.8,0.43,1.84,0.61,2.88,0.67v1.96h-14.45v-1.96c0.92-0.06,1.96-0.12,2.69-0.36c1.16-0.31,1.65-1.23,1.65-2.7v-18.19
					c0-1.41-0.62-2.57-1.65-3.31c-0.74-0.43-1.84-0.67-3-0.73v-1.96l9.79-0.61l0.43,0.43v4.1h0.12c0.98-0.92,2.57-2.51,3.86-3.31
					c1.47-0.98,3.55-1.71,6.06-1.71c5.63,0,8.33,3.86,8.33,9.73v15.31c0,1.41,0.43,2.21,1.59,2.7c0.98,0.43,1.47,0.55,2.7,0.61
					V313.13L668.35,313.13z"/>
				<path d="M180.09,330.33c-1.16,0-3.8,0.43-5.08,1.35c-1.41,0.92-1.84,3.92-1.84,8.08v18.43c0,4.72-2.14,8.2-5.33,10.41
					c-3.12,2.21-6.79,3.06-9.98,3.06c-5.08,0-9.12-1.47-11.81-3.74c-2.69-2.27-4.04-5.33-4.04-8.51v-25.04
					c0-1.41-0.31-2.26-1.72-3.06c-1.04-0.55-2.88-0.92-3.85-0.98v-2.14h17.69v2.14c-1.17,0-3.18,0.43-3.98,0.74
					c-1.41,0.43-1.72,1.71-1.72,3v23.45c0,2.2,0.37,4.9,1.84,7.04c1.53,2.21,4.04,3.74,8.69,3.74c4.41,0,7.29-1.53,9-3.8
					c1.65-2.14,2.27-4.53,2.27-6.92v-17.45c0-4.41-0.67-7.35-1.9-8.14c-0.68-0.55-1.66-0.92-2.88-1.16
					c-1.17-0.31-2.08-0.43-2.76-0.49v-2.14h17.39V330.33L180.09,330.33z"/>
				<path d="M211.86,370.61h-14.45v-1.96c0.92-0.06,2.14-0.12,2.88-0.37c1.16-0.3,1.65-1.22,1.65-2.69v-15.18
					c0-4.16-2.33-6.55-5.08-6.55c-2.14,0-3.86,0.8-5.27,1.71c-1.29,0.98-2.08,2.08-2.39,2.76v16.96c0,1.41,0.49,2.21,1.65,2.7
					c0.79,0.43,1.84,0.61,2.88,0.67v1.96h-14.45v-1.96c0.92-0.06,1.96-0.12,2.69-0.37c1.16-0.3,1.65-1.22,1.65-2.69v-18.18
					c0-1.41-0.61-2.57-1.65-3.31c-0.73-0.43-1.84-0.67-3-0.74v-1.96l9.79-0.61l0.43,0.43v4.1h0.12c0.98-0.92,2.57-2.51,3.86-3.31
					c1.47-0.98,3.55-1.71,6.06-1.71c5.63,0,8.33,3.86,8.33,9.74v15.31c0,1.41,0.43,2.2,1.59,2.7c0.98,0.43,1.47,0.55,2.69,0.61
					V370.61L211.86,370.61z"/>
				<path d="M259.79,342.94c-1.77,0.31-3.49,1.1-4.65,3.55c-2.39,5.39-4.84,11.14-7.53,17.51c-0.79,1.9-1.77,4.59-2.51,6.86h-2.39
					c-3.73-9.31-6.73-16.53-10.16-24.61c-0.8-1.9-2.81-2.88-4.59-3.13v-1.96h13.59v2.08c-0.55,0-1.29,0.12-2.2,0.37
					c-0.92,0.18-1.35,0.49-1.35,0.92c0,0.18,0.25,0.67,0.43,1.35c0.8,2.02,1.96,4.9,3.43,8.51c1.53,3.61,2.75,6.55,3.67,8.82
					c1.47-3.43,3.73-8.63,6.24-14.94c0.43-1.04,0.86-1.96,0.86-2.94c0-0.67-0.8-1.29-1.71-1.59c-0.92-0.43-1.9-0.61-2.39-0.67v-1.9
					h11.26V342.94L259.79,342.94z"/>
				<path d="M279.43,352.43c0-2.2-0.3-5.08-1.22-6.79c-0.92-1.78-2.45-3.06-4.96-3.06c-4.16,0-7.22,3.67-7.47,9.86H279.43
					L279.43,352.43z M286.04,363.7c-2.45,4.65-6.73,7.72-12.12,7.72c-4.72,0-8.26-1.78-10.65-4.65c-2.27-2.94-3.43-6.8-3.43-11.15
					c0-3.86,1.22-7.65,3.61-10.59c2.27-2.88,5.69-4.72,9.86-4.72c4.34,0,7.35,1.41,9.31,3.8c1.78,2.2,2.69,5.27,2.69,8.88v1.96
					h-19.53c0,3.92,0.67,7.04,2.33,9.43c1.53,2.26,4.04,3.73,7.53,3.73c3.49,0,5.88-1.47,8.33-5.69L286.04,363.7L286.04,363.7z"/>
				<path d="M308.32,348.82c-2.2,0-3.43-1.35-3.43-2.75c0-0.92,0.12-1.59,0.31-2.27c-1.9,0-4.78,1.59-6.49,4.35v17.14
					c0,1.41,0.49,2.27,1.65,2.7c0.98,0.43,2.82,0.61,3.98,0.67v1.96h-15.55v-1.96c0.92-0.06,1.96-0.12,2.69-0.37
					c1.16-0.3,1.65-1.22,1.65-2.69v-18.18c0-1.29-0.61-2.57-1.65-3.31c-0.73-0.43-1.84-0.67-3-0.74v-1.96l9.79-0.61l0.43,0.43v4.1
					h0.12c2.45-3.18,5.82-4.9,8.26-4.9c2.51,0,4.29,1.78,4.29,4.53C311.38,346.92,310.34,348.82,308.32,348.82L308.32,348.82z"/>
				<path d="M335.32,362.1c0,2.76-1.04,4.96-3.12,6.74c-2.02,1.71-4.65,2.57-7.9,2.57c-3.43,0-6.61-1.66-7.84-2.63l-0.61,1.9h-2.2
					l-0.31-10.22h2.02c0.31,1.53,1.47,3.86,2.94,5.51c1.53,1.78,3.74,3.12,6.43,3.12c3.86,0,6-1.78,6-5.02
					c0-1.65-0.68-2.82-1.96-3.74c-1.29-0.98-3.25-1.65-5.63-2.39c-1.9-0.49-4.41-1.53-6.06-2.82c-1.72-1.47-3-3.43-3-6.18
					c0-2.39,0.92-4.47,2.69-6.12c1.78-1.66,4.22-2.51,7.22-2.51c2.27,0,4.96,0.74,6.49,1.53l0.68-1.59h2.14l0.49,9.49h-2.08
					c-0.8-4.22-3.8-7.16-7.78-7.16c-3.24,0-5.26,1.96-5.26,4.22c0,1.77,0.61,2.94,1.84,3.74c1.22,0.8,2.94,1.41,5.63,2.33
					c2.63,0.79,5.08,2.02,6.61,3.3C334.39,357.63,335.32,359.41,335.32,362.1L335.32,362.1z"/>
				<path d="M373.14,369.33c-2.63,1.04-4.59,1.9-7.96,1.9c-4.9,0-6.74-2.63-6.74-7.1V344.1h-5.32v-2.82h5.45v-9.19h5.45v9.19h8.45
					v2.82h-8.39v16.47c0,2.51,0.06,4.04,0.8,5.27c0.67,1.22,1.84,1.77,3.98,1.77c0.98,0,3.49-0.18,4.28-0.49V369.33L373.14,369.33z"
					/>
				<path d="M378.16,376.86c1.29,0,2.14,0.55,2.88,1.29c0.67,0.55,1.35,1.84,1.77,2.51c1.04-0.55,2.2-1.96,3.55-4.23
					c1.41-2.27,2.39-4.22,3.06-5.94c-1.9-4.71-3.67-8.94-5.2-12.67c-1.53-3.74-3.12-7.59-4.78-11.57c-0.74-1.9-2.82-2.88-4.59-3.13
					v-1.96h13.41v2.08c-0.55,0-1.29,0.12-2.15,0.37c-0.79,0.18-1.22,0.49-1.22,0.8c0,0.24,0.18,0.8,0.43,1.47
					c0.79,1.96,1.96,4.78,3.49,8.51c1.53,3.74,2.76,6.68,3.61,8.94c1.78-4.23,3.61-8.51,6-14.69c0.31-0.8,1.04-2.33,1.04-3.31
					c0-0.55-0.49-1.04-1.41-1.47c-0.92-0.43-1.78-0.74-2.57-0.79v-1.9h10.96V343c-1.23,0.18-3.61,1.35-4.53,3.49
					c-2.39,5.51-4.47,10.53-6.37,15.06c-1.84,4.53-3.25,7.84-4.16,9.98c-2.51,5.57-4.35,8.45-6.25,10.22
					c-1.9,1.72-3.18,2.14-4.84,2.14c-3.12,0-4.96-1.71-4.96-3.67C375.34,378.27,376.5,376.86,378.16,376.86L378.16,376.86z"/>
			</g>
			<g>
				<g>
					<path style="fill:#003DA6;" d="M269.07,149.61c0-2.9,1.24-5.51,3.22-7.34c0.75-0.69,1.6-1.27,2.53-1.71
						c1.29-0.61,2.73-0.96,4.26-0.96h30.57v2.54c0,1.56-1.07,2.86-2.52,3.23l-1.92,0.29c-1.74,0.3-3.49,0.73-5.19,1.3
						c-3.76,1.2-4.81,4.06-4.81,7.52v5.6v49.77c0,20.6,9.32,29.61,26.75,29.61c16.98,0,27.2-10.67,27.2-30.66v-59.15
						c0-5.53,4.48-10.01,10.01-10.01l13.08-0.04v2.54c0,1.56-1.07,2.86-2.52,3.23l-0.78,0.11c-2.11,0.3-4.25,0.79-6.33,1.48
						c-3.76,1.2-4.81,4.06-4.81,7.52l0.06,57.02c0,11.27-3.9,20.44-11.57,27.51c-7.67,6.92-17.89,10.37-30.66,10.37
						c-29.61,0-46.59-14.13-46.59-38.03V149.61L269.07,149.61z"/>
					<path style="fill:#003DA6;" d="M263.49,219.24c-2.3-1.53-5.41-0.91-6.95,1.39h0.01c-8.3,12.33-17.98,18.38-30.38,18.38
						c-9.47,0-17.28-3.16-22.85-10.82c-5.41-7.07-9.02-18.79-9.02-35.18c0-29.31,9.77-46.29,28.25-46.29
						c14.2,0,23.73,9.47,30.98,30.57l0.35,0.66c0.86,1.43,2.39,2.4,4.17,2.44h0.11h2.88l0.06-31.07c-0.09-2.76-1.3-5.23-3.2-6.99
						c-0.75-0.69-1.6-1.27-2.53-1.71c-1.29-0.61-2.74-0.96-4.26-0.96h-29.45c-16.08,0-30.66,5.71-40.43,15.48
						c-10.22,10.07-16.08,24.2-16.08,40.29c0,16.23,5.86,30.21,15.63,39.38c9.77,9.47,23.6,14.58,38.78,14.58
						c12.63,0,21.64-3.3,29.31-8.72c7.07-4.81,12.33-11.72,16.54-20.29L263.49,219.24L263.49,219.24z"/>
					<path style="fill:#003DA6;" d="M155.5,199.28c-0.83-0.36-1.72-0.59-2.66-0.72c-0.45-0.06-0.91-0.14-1.38-0.14h-31.02l0.02,1.58
						c0,2.17,1.39,4.01,3.33,4.7c0.45,0.16,0.93,0.26,1.43,0.29c0.08,0,0.17,0.02,0.25,0.02c-0.08,0-0.17-0.02-0.25-0.02
						c2.28,0.47,4.65,1.09,6.35,1.85c3.75,1.8,4.66,4.06,4.66,7.52v21.19c-3.61,3.46-10.67,6.46-19.24,6.46
						c-18.49,0-28.86-18.34-28.86-49c0-28.86,10.68-46.29,29.46-46.29c15.03,0,24.82,9.72,31.96,30.52
						c0.01,0.04,0.03,0.08,0.05,0.12c0.75,1.75,2.47,2.98,4.47,3.02h2.9v-30.73c0-2.9-1.24-5.51-3.22-7.34
						c-0.75-0.69-1.6-1.27-2.53-1.71c-1.28-0.6-2.7-0.95-4.2-0.96l-30.48,0.01c-17.44,0-32.01,5.41-42.08,15.48
						c-10.22,9.77-15.63,24.05-15.63,40.29c0,17.43,6.01,31.11,16.08,40.13c9.77,9.17,23.45,13.83,38.48,13.83
						c8.12,0,16.99-1.35,26.45-3.91c7.61-2.05,13.73-4.29,18.43-6.58l0.76-0.37c1.44-0.85,2.42-2.39,2.46-4.17v-0.11v-25.8
						C161.48,204.35,159.02,200.84,155.5,199.28L155.5,199.28z"/>
				</g>
				<path style="fill:#003DA6;" d="M120.74,341c-0.18,0-0.36-0.03-0.53-0.11c-30.61-12.67-56.64-33.93-75.29-61.5
					c-19.1-28.23-29.1-61.24-28.92-95.47c0.23-44.93,17.87-87.13,49.67-118.81C97.45,33.44,139.63,16,184.44,16l0.9,0
					c47.1,0.25,92.26,20.45,123.93,55.44c0.3,0.25,0.5,0.64,0.5,1.06c0,0.77-0.63,1.4-1.39,1.38c0,0-0.01,0-0.01,0
					c-0.34,0-0.68-0.12-0.94-0.37c-29.98-27.79-68.99-43.22-109.84-43.43l-0.88,0c-43.37,0-84.19,16.88-114.95,47.54
					c-30.77,30.67-47.85,71.51-48.07,114.99c-0.32,61.45,33.28,117.31,87.68,145.78c0.66,0.34,0.93,1.14,0.61,1.81
					C121.75,340.7,121.26,341,120.74,341L120.74,341z"/>
			</g>
		</g>
	</g>
</g>
<g id="Layer_2">
</g>
</svg>
